<?xml version="1.0" encoding="UTF-8" standalone="no"?>
<svg
        width="100%"
        height="auto"
        viewBox="0 0 1440 250"
        xmlns="http://www.w3.org/2000/svg"
        preserveAspectRatio="none"
        style="display: block; background: #E0F7FA"
>
    <!-- Himmel -->
    <rect x="0" y="0" width="1440" height="250" fill="#FFE0B2" />
    <!-- Obere Welle -->
    <path
            d="M0,25L34.3,54.2C68.6,83,137,142,206,141.7C274.3,142,343,83,411,54.2C480,25,549,25,617,20.8C685.7,17,754,8,823,37.5C891.4,67,960,133,1029,162.5C1097.1,192,1166,183,1234,158.3C1302.9,133,1371,92,1440,62.5C1508.6,33,1577,17,1646,33.3C1714.3,50,1783,100,1851,108.3C1920,117,1989,83,2057,79.2C2125.7,75,2194,100,2263,112.5C2331.4,125,2400,125,2469,141.7C2537.1,158,2606,192,2674,187.5C2742.9,183,2811,142,2880,104.2C2948.6,67,3017,33,3086,50C3154.3,67,3223,133,3291,166.7C3360,200,3429,200,3497,200C3565.7,200,3634,200,3703,200C3771.4,200,3840,200,3909,170.8C3977.1,142,4046,83,4114,62.5C4182.9,42,4251,58,4320,83.3C4388.6,108,4457,142,4526,141.7C4594.3,142,4663,108,4731,104.2C4800,100,4869,125,4903,137.5L4937.1,150L4937.1,250L4902.9,250C4868.6,250,4800,250,4731,250C4662.9,250,4594,250,4526,250C4457.1,250,4389,250,4320,250C4251.4,250,4183,250,4114,250C4045.7,250,3977,250,3909,250C3840,250,3771,250,3703,250C3634.3,250,3566,250,3497,250C3428.6,250,3360,250,3291,250C3222.9,250,3154,250,3086,250C3017.1,250,2949,250,2880,250C2811.4,250,2743,250,2674,250C2605.7,250,2537,250,2469,250C2400,250,2331,250,2263,250C2194.3,250,2126,250,2057,250C1988.6,250,1920,250,1851,250C1782.9,250,1714,250,1646,250C1577.1,250,1509,250,1440,250C1371.4,250,1303,250,1234,250C1165.7,250,1097,250,1029,250C960,250,891,250,823,250C754.3,250,686,250,617,250C548.6,250,480,250,411,250C342.9,250,274,250,206,250C137.1,250,69,250,34,250L0,250Z"
            fill="#4DD0E1"
            style="opacity:1;transform:translate(0,0px);"
    />
    <!-- Mittlere Welle -->
    <path
            d="M0,200L34.3,187.5C68.6,175,137,150,206,125C274.3,100,343,75,411,87.5C480,100,549,150,617,141.7C685.7,133,754,67,823,37.5C891.4,8,960,17,1029,37.5C1097.1,58,1166,92,1234,91.7C1302.9,92,1371,58,1440,58.3C1508.6,58,1577,92,1646,125C1714.3,158,1783,192,1851,208.3C1920,225,1989,225,2057,216.7C2125.7,208,2194,192,2263,170.8C2331.4,150,2400,125,2469,100C2537.1,75,2606,50,2674,37.5C2742.9,25,2811,25,2880,58.3C2948.6,92,3017,158,3086,162.5C3154.3,167,3223,108,3291,75C3360,42,3429,33,3497,29.2C3565.7,25,3634,25,3703,25C3771.4,25,3840,25,3909,29.2C3977.1,33,4046,42,4114,58.3C4182.9,75,4251,100,4320,125C4388.6,150,4457,175,4526,179.2C4594.3,183,4663,167,4731,170.8C4800,175,4869,200,4903,212.5L4937.1,225L4937.1,250L4902.9,250C4868.6,250,4800,250,4731,250C4662.9,250,4594,250,4526,250C4457.1,250,4389,250,4320,250C4251.4,250,4183,250,4114,250C4045.7,250,3977,250,3909,250C3840,250,3771,250,3703,250C3634.3,250,3566,250,3497,250C3428.6,250,3360,250,3291,250C3222.9,250,3154,250,3086,250C3017.1,250,2949,250,2880,250C2811.4,250,2743,250,2674,250C2605.7,250,2537,250,2469,250C2400,250,2331,250,2263,250C2194.3,250,2126,250,2057,250C1988.6,250,1920,250,1851,250C1782.9,250,1714,250,1646,250C1577.1,250,1509,250,1440,250C1371.4,250,1303,250,1234,250C1165.7,250,1097,250,1029,250C960,250,891,250,823,250C754.3,250,686,250,617,250C548.6,250,480,250,411,250C342.9,250,274,250,206,250C137.1,250,69,250,34,250L0,250Z"
            fill="#00ACC1"
            style="opacity:0.9;transform:translate(0,50px);"
    />
    <!-- Untere Welle -->
    <path
            d="M0,125L34.3,141.7C68.6,158,137,192,206,175C274.3,158,343,92,411,62.5C480,33,549,42,617,62.5C685.7,83,754,117,823,129.2C891.4,142,960,133,1029,141.7C1097.1,150,1166,175,1234,191.7C1302.9,208,1371,217,1440,200C1508.6,183,1577,142,1646,120.8C1714.3,100,1783,100,1851,112.5C1920,125,1989,150,2057,137.5C2125.7,125,2194,75,2263,70.8C2331.4,67,2400,108,2469,141.7C2537.1,175,2606,200,2674,204.2C2742.9,208,2811,192,2880,191.7C2948.6,192,3017,208,3086,216.7C3154.3,225,3223,225,3291,216.7C3360,208,3429,192,3497,191.7C3565.7,192,3634,208,3703,216.7C3771.4,225,3840,225,3909,216.7C3977.1,208,4046,192,4114,170.8C4182.9,150,4251,125,4320,116.7C4388.6,108,4457,117,4526,112.5C4594.3,108,4663,92,4731,70.8C4800,50,4869,25,4903,12.5L4937.1,0L4937.1,250L4902.9,250C4868.6,250,4800,250,4731,250C4662.9,250,4594,250,4526,250C4457.1,250,4389,250,4320,250C4251.4,250,4183,250,4114,250C4045.7,250,3977,250,3909,250C3840,250,3771,250,3703,250C3634.3,250,3566,250,3497,250C3428.6,250,3360,250,3291,250C3222.9,250,3154,250,3086,250C3017.1,250,2949,250,2880,250C2811.4,250,2743,250,2674,250C2605.7,250,2537,250,2469,250C2400,250,2331,250,2263,250C2194.3,250,2126,250,2057,250C1988.6,250,1920,250,1851,250C1782.9,250,1714,250,1646,250C1577.1,250,1509,250,1440,250C1371.4,250,1303,250,1234,250C1165.7,250,1097,250,1029,250C960,250,891,250,823,250C754.3,250,686,250,617,250C548.6,250,480,250,411,250C342.9,250,274,250,206,250C137.1,250,69,250,34,250L0,250Z"
            fill="#00838F"
            style="opacity:0.8;transform:translate(0,100px);"
    />
</svg>