<svg viewBox="0 0 250 250"
     fill="none"
     stroke="currentColor"
     stroke-width="5"
     stroke-linecap="round"
     stroke-linejoin="round"
     xmlns="http://www.w3.org/2000/svg">
  <!-- Linke Traverse (maximal nach außen) -->
  <rect x="18"
        y="18"
        width="20"
        height="214"
        rx="5"
        fill="none"/>
  <path d="M23 35 L33 65 L23 95 L33 125 L23 155 L33 185 L23 215"
        stroke="currentColor"
        stroke-width="3"/>
  <path d="M38 35 L28 65 L38 95 L28 125 L38 155 L28 185 L38 215"
        stroke="currentColor"
        stroke-width="3"/>
  <!-- Rechte Traverse (maximal nach außen) -->
  <rect x="212"
        y="18"
        width="20"
        height="214"
        rx="5"
        fill="none"/>
  <path d="M217 35 L227 65 L217 95 L227 125 L217 155 L227 185 L217 215"
        stroke="currentColor"
        stroke-width="3"/>
  <path d="M232 35 L222 65 L232 95 L222 125 L232 155 L222 185 L232 215"
        stroke="currentColor"
        stroke-width="3"/>
  <!-- Traverse oben (maximal breit) -->
  <rect x="38"
        y="18"
        width="174"
        height="20"
        rx="5"
        fill="none"/>
  <!-- Movingheads/Lampen -->
  <g>
    <circle cx="65"
            cy="28"
            r="10"
            fill="currentColor"
            stroke="none"/>
    <path d="M65 38 L45 58"
          stroke="currentColor"
          stroke-width="3"/>
    <path d="M65 38 L85 58"
          stroke="currentColor"
          stroke-width="3"/>
  </g>
  <g>
    <circle cx="125"
            cy="28"
            r="10"
            fill="currentColor"
            stroke="none"/>
    <path d="M125 38 L125 68"
          stroke="currentColor"
          stroke-width="3"/>
  </g>
  <g>
    <circle cx="185"
            cy="28"
            r="10"
            fill="currentColor"
            stroke="none"/>
    <path d="M185 38 L205 58"
          stroke="currentColor"
          stroke-width="3"/>
    <path d="M185 38 L165 58"
          stroke="currentColor"
          stroke-width="3"/>
  </g>
  <!-- DJ-Pult (maximal breit, bündig mit unteren Traversen-Enden) -->
  <rect x="55"
        y="178"
        width="140"
        height="48"
        rx="10"
        fill="none"/>
  <!-- "DJ" Schriftzug auf dem Pult -->
  <text x="125"
        y="210"
        text-anchor="middle"
        font-size="34"
        font-family="Arial, Helvetica, sans-serif"
        fill="currentColor"
        stroke="none"
        font-weight="bold">DJ
  </text>
  <!-- Person hinter dem Pult (Kopf) -->
  <circle cx="125"
          cy="158"
          r="20"
          fill="currentColor"
          stroke="none"/>
  <!-- Schultern/Arme -->
  <path d="M100 178 Q125 170 150 178"
        stroke="currentColor"
        stroke-width="5"
        fill="none"/>
  <!-- Oberkörper (leicht angedeutet) -->
  <path d="M115 178 Q125 188 135 178"
        stroke="currentColor"
        stroke-width="3"
        fill="none"/>
</svg>